{"asset":{"version":"2.0","generator":"THREE.GLTFExporter"},"scenes":[{"nodes":[4],"name":"AuxScene","extras":{"name":""}}],"scene":0,"nodes":[{"rotation":[0,0,0,1],"translation":[0,0,0],"scale":[1,1,1],"extras":{"name":""},"mesh":0},{"rotation":[0,0,0,1],"translation":[-20.1143,0,-0.350256],"scale":[39.3701,39.3701,39.3701],"name":"CUBELEFT","extras":{"Detail":"https://www.catalogdatasolutions.com/","childType":"Part","compId":-1639859247,"configurableMaterials":{},"OriginalMatrix":{"elements":[39.3701,0,0,0,0,39.3701,0,0,0,0,39.3701,0,-20.1143,0,-0.350256,1]},"initialPos":{"x":-20.1143,"y":0,"z":-0.350256},"initialQuat":{"_x":0,"_y":0,"_z":0,"_w":1},"originalBBCenter":{"x":-20.1143,"y":19.68505,"z":-0.3502560000000017},"name":""},"children":[0]},{"rotation":[0,0,0,1],"translation":[0,0,0],"scale":[1,1,1],"extras":{"name":""},"mesh":1},{"rotation":[0,0,0,1],"translation":[23.1928,0,-0.350256],"scale":[39.3701,39.3701,39.3701],"name":"CUBERIGHT","extras":{"Detail":"https://www.catalogdatasolutions.com/","childType":"Part","compId":-1639842440,"configurableMaterials":{},"OriginalMatrix":{"elements":[39.3701,0,0,0,0,39.3701,0,0,0,0,39.3701,0,23.1928,0,-0.350256,1]},"initialPos":{"x":23.1928,"y":0,"z":-0.350256},"initialQuat":{"_x":0,"_y":0,"_z":0,"_w":1},"originalBBCenter":{"x":23.1928,"y":19.68505,"z":-0.3502560000000017},"name":""},"children":[2]},{"rotation":[0,0,0,1],"translation":[0,0,0],"scale":[1,1,1],"name":"ANIM","extras":{"initialPos":{"x":0,"y":0,"z":0},"initialQuat":{"_x":0,"_y":0,"_z":0,"_w":1},"name":""},"children":[1,3]}],"bufferViews":[{"buffer":0,"byteOffset":0,"byteLength":432,"target":34962,"byteStride":12},{"buffer":0,"byteOffset":432,"byteLength":432,"target":34962,"byteStride":12},{"buffer":0,"byteOffset":864,"byteLength":432,"target":34962,"byteStride":12},{"buffer":0,"byteOffset":1296,"byteLength":288,"target":34962,"byteStride":8},{"buffer":0,"byteOffset":1584,"byteLength":72,"target":34963},{"buffer":0,"byteOffset":1656,"byteLength":432,"target":34962,"byteStride":12},{"buffer":0,"byteOffset":2088,"byteLength":432,"target":34962,"byteStride":12},{"buffer":0,"byteOffset":2520,"byteLength":432,"target":34962,"byteStride":12},{"buffer":0,"byteOffset":2952,"byteLength":288,"target":34962,"byteStride":8},{"buffer":0,"byteOffset":3240,"byteLength":72,"target":34963}],"buffers":[{"byteLength":3312,"uri":"data:application/octet-stream;base64,"}],"accessors":[{"bufferView":0,"componentType":5126,"count":36,"max":[0.5,1,0.5],"min":[-0.5,0,-0.5],"type":"VEC3"},{"bufferView":1,"componentType":5126,"count":36,"max":[1,1,1],"min":[-1,-1,-1],"type":"VEC3"},{"bufferView":2,"componentType":5126,"count":36,"max":[1,1,1],"min":[1,1,1],"type":"VEC3"},{"bufferView":3,"componentType":5126,"count":36,"max":[1,1],"min":[0,0],"type":"VEC2"},{"bufferView":4,"componentType":5123,"count":36,"max":[35],"min":[0],"type":"SCALAR"},{"bufferView":5,"componentType":5126,"count":36,"max":[0.5,1,0.5],"min":[-0.5,0,-0.5],"type":"VEC3"},{"bufferView":6,"componentType":5126,"count":36,"max":[1,1,1],"min":[-1,-1,-1],"type":"VEC3"},{"bufferView":7,"componentType":5126,"count":36,"max":[1,1,1],"min":[1,1,1],"type":"VEC3"},{"bufferView":8,"componentType":5126,"count":36,"max":[1,1],"min":[0,0],"type":"VEC2"},{"bufferView":9,"componentType":5123,"count":36,"max":[35],"min":[0],"type":"SCALAR"}],"materials":[{"pbrMetallicRoughness":{"baseColorFactor":[0.5882352941176471,0.6274509803921569,0.6705882352941176,1],"metallicFactor":0.5,"roughnessFactor":0.5},"extras":{"name":""}},{"pbrMetallicRoughness":{"baseColorFactor":[0.8980392156862745,0,0,1],"metallicFactor":0.5,"roughnessFactor":0.5},"extras":{"name":""}}],"meshes":[{"primitives":[{"mode":4,"attributes":{"POSITION":0,"NORMAL":1,"COLOR_0":2,"TEXCOORD_0":3},"extras":{"name":""},"indices":4,"material":0}]},{"primitives":[{"mode":4,"attributes":{"POSITION":5,"NORMAL":6,"COLOR_0":7,"TEXCOORD_0":8},"extras":{"name":""},"indices":9,"material":1}]}]}